<?xml version="1.0" encoding="UTF-8"?>
<!DOCTYPE svg PUBLIC "-//W3C//DTD SVG 1.1//EN" "http://www.w3.org/Graphics/SVG/1.1/DTD/svg11.dtd">
<!-- Creator: CorelDRAW X7 -->
<svg xmlns="http://www.w3.org/2000/svg" xml:space="preserve" width="60.8976mm" height="60.8976mm" version="1.1" style="shape-rendering:geometricPrecision; text-rendering:geometricPrecision; image-rendering:optimizeQuality; fill-rule:evenodd; clip-rule:evenodd"
viewBox="0 0 1947 1947"
 xmlns:xlink="http://www.w3.org/1999/xlink">
 <defs>
  <style type="text/css">
   <![CDATA[
    .fil3 {fill:black}
    .fil4 {fill:#010002}
    .fil1 {fill:#FED100}
    .fil2 {fill:white}
    .fil0 {fill:#E6E6E6;fill-opacity:0.501961}
   ]]>
  </style>
 </defs>
 <g id="Layer_x0020_1">
  <metadata id="CorelCorpID_0Corel-Layer"/>
  <path class="fil0" d="M974 0c538,0 973,436 973,974 0,538 -435,973 -973,973 -538,0 -974,-435 -974,-973 0,-538 436,-974 974,-974z"/>
  <path class="fil0" d="M974 113c475,0 861,385 861,861 0,475 -386,861 -861,861 -476,0 -861,-386 -861,-861 0,-476 385,-861 861,-861z"/>
  <circle class="fil1" cx="974" cy="974" r="742"/>
  <circle class="fil2" cx="1325" cy="623" r="65"/>
  <circle class="fil2" cx="623" cy="1325" r="65"/>
  <path class="fil2" d="M1213 1149l25 0c68,0 123,-55 123,-123 0,-67 -55,-122 -123,-122 -16,0 -31,3 -45,8 0,0 0,-1 0,-2 0,-132 -107,-239 -239,-239 -130,0 -236,103 -240,233 -1,0 -3,0 -5,0 -68,0 -123,55 -123,122 0,68 55,123 123,123l25 0 479 0zm-239 -80c80,0 145,-25 145,-55 0,-30 -65,-54 -145,-54 -81,0 -146,24 -146,54 0,30 65,55 146,55z"/>
  <path class="fil3" d="M623 1239c-14,0 -27,3 -38,9 -57,-80 -87,-175 -87,-274 0,-263 213,-476 476,-476 37,0 74,4 110,13 11,2 22,-5 25,-15 2,-11 -4,-22 -15,-25 -39,-9 -80,-14 -120,-14 -138,0 -268,54 -365,152 -98,97 -152,227 -152,365 0,109 34,212 97,300 -25,34 -22,81 8,111 17,17 39,25 61,25 22,0 44,-8 60,-25l0 0c34,-33 34,-87 0,-121 -16,-16 -37,-25 -60,-25zm32 118c-18,17 -46,17 -64,0 -18,-18 -18,-47 0,-64 8,-9 20,-13 32,-13 12,0 23,4 32,13 17,17 17,46 0,64z"/>
  <path class="fil3" d="M1394 673c24,-33 21,-80 -9,-111 -33,-33 -87,-33 -121,0 -33,34 -33,88 0,121 16,16 38,25 61,25 13,0 26,-3 38,-9 57,81 87,175 87,275 0,262 -214,476 -476,476 -38,0 -75,-5 -111,-13 -11,-3 -22,4 -25,15 -2,11 4,21 15,24 40,9 80,14 121,14 138,0 267,-54 365,-151 97,-98 151,-227 151,-365 0,-109 -33,-213 -96,-301zm-101 -18c-18,-18 -18,-46 0,-64 9,-9 20,-13 32,-13 11,0 23,4 32,13 17,18 17,46 0,64 -9,8 -20,13 -32,13 -12,0 -24,-5 -32,-13z"/>
  <path class="fil3" d="M797 1416c0,0 -1,0 -1,0 -10,-4 -22,1 -26,11 -4,10 1,22 11,26 3,1 5,2 8,2 8,0 15,-5 19,-13 4,-10 -1,-22 -11,-26z"/>
  <path class="fil3" d="M1152 532l0 0c2,1 5,2 7,2 8,0 16,-5 19,-13 4,-10 -1,-22 -11,-26l0 0c-11,-5 -22,0 -27,11 -4,10 1,22 12,26z"/>
  <path class="fil3" d="M734 1129l-25 0c-56,0 -102,-46 -102,-103 0,-56 46,-102 102,-102 2,0 3,0 5,0 0,0 1,0 2,0 0,0 1,0 1,0 25,2 47,13 65,30 4,4 9,6 14,6 5,0 10,-2 14,-6 8,-8 8,-21 0,-29 -20,-20 -46,-34 -74,-39 12,-111 104,-195 218,-195 120,0 219,98 219,219l0 2c0,7 3,13 9,17 5,4 12,5 18,2 12,-5 25,-7 38,-7 57,0 103,46 103,102 0,57 -46,103 -103,103l-25 0c-11,0 -20,9 -20,20 0,11 9,20 20,20l25 0c79,0 143,-64 143,-143 0,-78 -64,-143 -143,-143 -9,0 -17,1 -26,3 -12,-132 -123,-236 -258,-236 -68,0 -133,27 -182,74 -44,43 -71,99 -77,160 -72,7 -129,68 -129,142 0,79 64,143 143,143l25 0c12,0 21,-9 21,-20 0,-11 -9,-20 -21,-20z"/>
  <path class="fil4" d="M974 936c-82,0 -170,24 -170,78l0 230c0,54 88,79 170,79 81,0 169,-25 169,-79l0 -230c0,-54 -88,-78 -169,-78zm145 308c0,30 -65,55 -145,55 -81,0 -146,-25 -146,-55l0 -45c25,26 86,39 146,39 60,0 120,-13 145,-39l0 45zm0 -72l0 0c0,0 0,0 0,0 0,30 -65,54 -145,54 -81,0 -146,-24 -146,-54 0,0 0,0 0,0l0 0 0 -46c25,26 86,40 146,40 60,0 120,-14 145,-40l0 46zm0 -73l0 0c0,0 0,0 0,0 0,30 -65,55 -145,55 -81,0 -146,-25 -146,-55 0,0 0,0 0,0l0 0 0 -42c32,25 90,36 146,36 55,0 113,-11 145,-36l0 42zm-145 -30c-81,0 -146,-25 -146,-55 0,-30 65,-54 146,-54 80,0 145,24 145,54 0,30 -65,55 -145,55z"/>
  <path class="fil2" d="M1119 1199c-25,26 -85,39 -145,39 -60,0 -121,-13 -146,-39l0 45c0,30 65,55 146,55 80,0 145,-25 145,-55l0 -45z"/>
  <path class="fil2" d="M974 1226c80,0 145,-24 145,-54l0 0 0 0 0 -46c-25,26 -85,40 -145,40 -60,0 -121,-14 -146,-40l0 46 0 0 0 0c0,30 65,54 146,54z"/>
  <path class="fil2" d="M974 1154c80,0 145,-25 145,-55l0 0 0 0 0 -42c-32,25 -90,36 -145,36 -56,0 -114,-11 -146,-36l0 42 0 0 0 0c0,30 65,55 146,55z"/>
  <circle class="fil4" cx="1083" cy="1250" r="12"/>
  <circle class="fil4" cx="1083" cy="1178" r="12"/>
  <circle class="fil4" cx="1083" cy="1105" r="12"/>
 </g>
</svg>
