<?xml version="1.0" encoding="UTF-8"?>
<!DOCTYPE svg PUBLIC "-//W3C//DTD SVG 1.1//EN" "http://www.w3.org/Graphics/SVG/1.1/DTD/svg11.dtd">
<!-- Creator: CorelDRAW X7 -->
<svg xmlns="http://www.w3.org/2000/svg" xml:space="preserve" width="20.574mm" height="20.574mm" version="1.1" style="shape-rendering:geometricPrecision; text-rendering:geometricPrecision; image-rendering:optimizeQuality; fill-rule:evenodd; clip-rule:evenodd"
viewBox="0 0 2717 2717"
 xmlns:xlink="http://www.w3.org/1999/xlink">
 <defs>
  <style type="text/css">
   <![CDATA[
    .fil1 {fill:#FED100}
    .fil2 {fill:white}
    .fil0 {fill:#E6E6E6;fill-opacity:0.501961}
   ]]>
  </style>
 </defs>
 <g id="Layer_x0020_1">
  <metadata id="CorelCorpID_0Corel-Layer"/>
  <g id="_2187242001744">
   <path class="fil0" d="M1358 0c751,0 1359,608 1359,1358 0,751 -608,1359 -1359,1359 -750,0 -1358,-608 -1358,-1359 0,-750 608,-1358 1358,-1358z"/>
   <path class="fil0" d="M1358 194c643,0 1165,522 1165,1164 0,643 -522,1165 -1165,1165 -642,0 -1164,-522 -1164,-1165 0,-642 522,-1164 1164,-1164z"/>
   <circle class="fil1" cx="1358" cy="1358" r="975"/>
  </g>
  <g id="_2187242003888">
   <path class="fil2" d="M905 1432c-12,0 -21,10 -21,21l0 85c0,11 9,21 21,21 12,0 21,-10 21,-21l0 -85c0,-11 -9,-21 -21,-21z"/>
   <path class="fil2" d="M989 1474c-11,0 -21,10 -21,22l0 84c0,12 10,21 21,21 12,0 21,-9 21,-21l0 -84c0,-12 -9,-22 -21,-22z"/>
   <path class="fil2" d="M1759 1588c-10,-7 -23,-4 -29,6 -6,10 -4,22 5,29 58,39 73,117 34,175 -39,58 -117,74 -175,35 -58,-40 -74,-118 -35,-176 24,-35 63,-56 105,-56 12,0 21,-9 21,-21 0,-12 -9,-21 -21,-21 -93,0 -168,75 -168,169 0,93 75,168 168,168 94,0 169,-75 169,-168 0,-57 -28,-109 -74,-140z"/>
   <path class="fil2" d="M1907 1657c-20,-70 -70,-129 -137,-159l0 -466c0,-8 -4,-15 -11,-19l-464 -274c-6,-4 -14,-4 -21,0l-464 274c-1,1 -1,1 -1,1 -1,1 -1,1 -1,1 -2,2 -4,3 -5,5 0,1 0,1 -1,1l0 0c-1,2 -1,4 -2,7 0,1 0,1 0,2 0,0 0,1 0,2l0 548c0,7 4,14 10,18l464 274c0,1 1,1 2,1 0,0 1,0 1,1 5,2 10,2 15,0 1,-1 1,-1 2,-1 0,0 1,0 1,-1l126 -74c39,134 179,211 314,173 134,-39 211,-179 172,-314zm-622 -875l109 65 -162 96c-10,6 -14,19 -8,29 6,10 19,13 29,7l183 -108 109 65 -422 250 -110 -65 177 -105c10,-5 13,-18 7,-28 -6,-10 -18,-14 -29,-8l-196 116 -110 -64 423 -250zm-183 440l0 141 -109 -64 0 -141 109 64zm318 440c-6,22 -9,44 -9,66 0,8 1,17 2,26l-107 63 0 -68c0,-12 -10,-21 -21,-21 -12,0 -21,9 -21,21l0 68 -422 -249 0 -499 109 64 0 178c0,7 4,14 10,18l151 89c3,2 7,3 11,3 12,0 21,-9 21,-21l0 -153 120 71 0 346c0,12 9,21 21,21 11,0 21,-9 21,-21l0 -346 382 -226c10,-6 13,-19 7,-29 -6,-10 -18,-13 -28,-7l-382 225 -121 -71 423 -249 141 83 0 439c-135,-36 -273,45 -308,179zm244 276c-116,0 -211,-94 -211,-210 0,-117 95,-211 211,-211 117,0 211,94 211,211 0,116 -94,210 -211,210z"/>
   <path class="fil2" d="M1742 1670c-8,-7 -21,-7 -29,0l-80 80 -17 -16c-8,-8 -22,-8 -30,0 -8,8 -8,21 0,30l32 31c8,8 21,8 30,0l94 -95c9,-8 8,-21 0,-30z"/>
  </g>
 </g>
</svg>
