<?xml version="1.0" encoding="UTF-8"?>
<!DOCTYPE svg PUBLIC "-//W3C//DTD SVG 1.1//EN" "http://www.w3.org/Graphics/SVG/1.1/DTD/svg11.dtd">
<!-- Creator: CorelDRAW X7 -->
<svg xmlns="http://www.w3.org/2000/svg" xml:space="preserve" width="20.574mm" height="20.574mm" version="1.1" style="shape-rendering:geometricPrecision; text-rendering:geometricPrecision; image-rendering:optimizeQuality; fill-rule:evenodd; clip-rule:evenodd"
viewBox="0 0 1562 1562"
 xmlns:xlink="http://www.w3.org/1999/xlink">
 <defs>
  <style type="text/css">
   <![CDATA[
    .fil1 {fill:#FED100}
    .fil2 {fill:white}
    .fil0 {fill:#E6E6E6;fill-opacity:0.501961}
   ]]>
  </style>
 </defs>
 <g id="Layer_x0020_1">
  <metadata id="CorelCorpID_0Corel-Layer"/>
  <g id="_2187242008752">
   <path class="fil0" d="M781 0c431,0 781,350 781,781 0,431 -350,781 -781,781 -431,0 -781,-350 -781,-781 0,-431 350,-781 781,-781z"/>
   <path class="fil0" d="M781 112c369,0 669,299 669,669 0,369 -300,669 -669,669 -370,0 -669,-300 -669,-669 0,-370 299,-669 669,-669z"/>
   <circle class="fil1" cx="781" cy="781" r="560"/>
  </g>
  <g id="_2187242008592">
   <path class="fil2" d="M1045 759l-11 -150c0,-6 -5,-10 -11,-10l-10 0 0 -11c0,-24 -20,-43 -43,-43 -24,0 -43,19 -43,43l0 11 -11 0c-5,0 -10,4 -10,10l-11 150c-1,6 4,11 10,11 0,0 0,0 1,0l128 0c6,0 11,-5 11,-11 0,0 0,0 0,0zm-97 -171c0,-12 10,-21 22,-21 12,0 21,9 21,21l0 11 -43 0 0 -11zm-31 161l9 -129 87 0 10 129 -106 0z"/>
   <path class="fil2" d="M1105 519c-35,-38 -84,-59 -135,-59 -48,-1 -94,19 -128,53 -17,-33 -50,-53 -86,-53l-107 0c-54,0 -97,43 -97,96l0 139c0,58 34,111 86,135l0 47 -57 0c-40,0 -72,32 -72,72l0 142c0,6 5,11 11,11l364 0c6,0 11,-5 11,-11l0 -142c0,-40 -32,-72 -72,-72l-57 0 0 -47c30,-14 54,-37 69,-66 68,74 183,80 257,12 75,-67 80,-182 13,-257zm-531 37c0,-41 33,-75 75,-75l107 0c29,0 56,17 68,44 -6,-1 -12,-1 -17,-1 -41,0 -80,20 -104,53l-13 -26c-1,-3 -4,-5 -7,-6 -4,0 -7,1 -10,3l-41 41 -58 17 0 -50zm202 343l47 0c28,0 50,22 50,50l0 132 -342 0 0 -132c0,-28 22,-50 50,-50l48 0c5,18 22,32 41,32l64 0c20,0 37,-14 42,-32zm-22 -4c-3,8 -11,14 -20,14l-64 0c-9,0 -17,-6 -20,-14 6,-4 9,-11 9,-18l0 -38c28,8 58,8 86,0l0 38c0,7 4,14 9,18zm-52 -71c-71,0 -128,-58 -128,-129l0 -67 67 -19c2,0 3,-1 4,-3l33 -32 12 25c-3,5 -5,11 -7,17 -1,6 2,12 8,13 2,1 5,1 8,-1 23,-12 49,-19 75,-19 6,0 11,1 17,1 -2,11 -3,21 -3,32 0,37 11,73 32,103 -20,48 -66,78 -118,79zm396 -85c-31,40 -78,63 -128,63 -89,1 -160,-71 -161,-159 0,-13 2,-26 5,-39 1,-6 -2,-11 -8,-13 0,0 -1,0 -1,0 -10,-2 -20,-3 -31,-3 -20,0 -40,4 -60,10 19,-32 55,-53 93,-53 8,0 16,1 24,3 4,1 9,0 11,-4 54,-70 155,-84 225,-30 71,54 84,155 31,225z"/>
   <polygon class="fil2" points="895,545 895,535 873,535 873,545 863,545 863,567 873,567 873,577 895,577 895,567 906,567 906,545 "/>
   <polygon class="fil2" points="1098,620 1098,609 1077,609 1077,620 1066,620 1066,642 1077,642 1077,652 1098,652 1098,642 1109,642 1109,620 "/>
   <rect class="fil2" x="1034" y="556" width="21.4157" height="21.4158"/>
   <rect class="fil2" x="959" y="502" width="21.4157" height="21.4158"/>
   <path class="fil2" d="M823 962l-4 -5c-11,-11 -28,-12 -41,-4l-12 8 -11 -8c-13,-9 -30,-7 -41,4l-4 5c-13,12 -13,32 0,45l49 49c4,4 11,4 15,0l49 -49c13,-13 13,-33 0,-45zm-15 30l-42 41 -41 -41c-4,-4 -4,-11 0,-15l4 -5c4,-4 10,-4 14,-1l17 11c4,3 9,3 12,0l18 -11c4,-3 10,-3 13,1l0 0 5 5c4,4 4,11 0,15z"/>
   <path class="fil2" d="M748 741c-12,13 -29,19 -46,19 -17,0 -33,-6 -45,-18l-15 15c34,33 88,33 121,-1 0,0 0,0 0,0l-15 -15z"/>
   <rect class="fil2" x="638" y="674" width="21.4157" height="21.4158"/>
   <rect class="fil2" x="745" y="674" width="21.4157" height="21.4158"/>
  </g>
 </g>
</svg>
