<?xml version="1.0" encoding="UTF-8"?>
<!DOCTYPE svg PUBLIC "-//W3C//DTD SVG 1.1//EN" "http://www.w3.org/Graphics/SVG/1.1/DTD/svg11.dtd">
<!-- Creator: CorelDRAW X7 -->
<svg xmlns="http://www.w3.org/2000/svg" xml:space="preserve" width="20.5475mm" height="20.5475mm" version="1.1" style="shape-rendering:geometricPrecision; text-rendering:geometricPrecision; image-rendering:optimizeQuality; fill-rule:evenodd; clip-rule:evenodd"
viewBox="0 0 308 308"
 xmlns:xlink="http://www.w3.org/1999/xlink">
 <defs>
  <style type="text/css">
   <![CDATA[
    .fil1 {fill:#FED100}
    .fil2 {fill:white}
    .fil0 {fill:#E6E6E6;fill-opacity:0.501961}
   ]]>
  </style>
 </defs>
 <g id="Layer_x0020_1">
  <metadata id="CorelCorpID_0Corel-Layer"/>
  <g id="_2152698293760">
   <path class="fil0" d="M154 0c85,0 154,69 154,154 0,85 -69,154 -154,154 -85,0 -154,-69 -154,-154 0,-85 69,-154 154,-154z"/>
   <path class="fil0" d="M154 22c73,0 132,59 132,132 0,73 -59,132 -132,132 -73,0 -132,-59 -132,-132 0,-73 59,-132 132,-132z"/>
   <circle class="fil1" cx="154" cy="154" r="110"/>
  </g>
  <g id="_2152698296544">
   <path class="fil2" d="M217 214l-11 0 0 -20c0,-1 -2,-3 -3,-3 -1,0 -3,2 -3,3l0 20 -30 0 0 -48c0,-2 -1,-3 -3,-3l-26 0c-2,0 -3,1 -3,3l0 48 -30 0 0 -57 0 0c1,0 2,-1 2,-1l44 -44 44 44c0,0 1,1 1,1l1 0 0 19c0,1 2,2 3,2 1,0 3,-1 3,-2l0 -19 11 0c1,0 2,-1 2,-2 1,-1 0,-2 0,-3l-63 -63c-1,-1 -3,-1 -4,0l-24 24c-1,1 -1,3 0,4 1,1 3,1 4,0l22 -22 57 56 -10 0 -45 -44c-1,-1 -3,-1 -4,0l-45 44 -10 0 20 -20c1,-1 1,-2 0,-3 -1,-1 -2,-1 -3,0l-25 24c0,1 -1,2 0,3 0,1 1,2 2,2l11 0 0 57 -11 0c-1,0 -2,1 -2,3 0,1 1,2 2,2l14 0 36 0 26 0 36 0 14 0c1,0 2,-1 2,-2 0,-2 -1,-3 -2,-3zm-52 0l-22 0 0 -46 22 0 0 46z"/>
   <path class="fil2" d="M192 163l-14 0c-1,0 -3,1 -3,3l0 25c0,2 2,3 3,3l14 0c2,0 3,-1 3,-3l0 -25c0,-2 -1,-3 -3,-3zm-2 26l-9 0 0 -21 9 0 0 21z"/>
   <path class="fil2" d="M130 163l-14 0c-2,0 -3,1 -3,3l0 25c0,2 1,3 3,3l14 0c1,0 3,-1 3,-3l0 -25c0,-2 -2,-3 -3,-3zm-3 26l-9 0 0 -21 9 0 0 21z"/>
   <path class="fil2" d="M154 131c-7,0 -12,5 -12,11 0,7 5,12 12,12 6,0 12,-5 12,-12 0,-6 -6,-11 -12,-11zm0 18c-4,0 -7,-3 -7,-7 0,-3 3,-6 7,-6 4,0 7,3 7,6 0,4 -3,7 -7,7z"/>
   <path class="fil2" d="M151 189c-1,0 -1,0 -2,0 -1,0 -1,0 -2,0 0,1 0,2 0,2 0,1 0,2 0,2 1,1 1,1 2,1 1,0 1,0 2,-1 0,0 1,-1 1,-2 0,0 -1,-1 -1,-2z"/>
   <path class="fil2" d="M124 121c0,-1 -1,-1 -1,-1 -1,0 -2,0 -2,1 -1,0 -1,1 -1,2 0,0 0,1 1,1 0,1 1,1 2,1 0,0 1,0 1,-1 1,0 1,-1 1,-1 0,-1 0,-2 -1,-2z"/>
   <path class="fil2" d="M205 182c-1,0 -1,0 -2,0 -1,0 -1,0 -2,0 0,1 -1,2 -1,2 0,1 1,2 1,2 1,0 1,1 2,1 1,0 1,-1 2,-1 0,0 1,-1 1,-2 0,0 -1,-1 -1,-2z"/>
  </g>
 </g>
</svg>
