<?xml version="1.0" encoding="UTF-8"?>
<!DOCTYPE svg PUBLIC "-//W3C//DTD SVG 1.1//EN" "http://www.w3.org/Graphics/SVG/1.1/DTD/svg11.dtd">
<!-- Creator: CorelDRAW X7 -->
<svg xmlns="http://www.w3.org/2000/svg" xml:space="preserve" width="20.574mm" height="20.574mm" version="1.1" style="shape-rendering:geometricPrecision; text-rendering:geometricPrecision; image-rendering:optimizeQuality; fill-rule:evenodd; clip-rule:evenodd"
viewBox="0 0 3248 3248"
 xmlns:xlink="http://www.w3.org/1999/xlink">
 <defs>
  <style type="text/css">
   <![CDATA[
    .fil1 {fill:#FED100}
    .fil2 {fill:white}
    .fil0 {fill:#E6E6E6;fill-opacity:0.501961}
   ]]>
  </style>
 </defs>
 <g id="Layer_x0020_1">
  <metadata id="CorelCorpID_0Corel-Layer"/>
  <g id="_2152694875248">
   <path class="fil0" d="M1624 0c897,0 1624,727 1624,1624 0,897 -727,1624 -1624,1624 -897,0 -1624,-727 -1624,-1624 0,-897 727,-1624 1624,-1624z"/>
   <path class="fil0" d="M1624 232c769,0 1392,623 1392,1392 0,769 -623,1392 -1392,1392 -769,0 -1392,-623 -1392,-1392 0,-769 623,-1392 1392,-1392z"/>
   <circle class="fil1" cx="1624" cy="1624" r="1165"/>
  </g>
  <g id="_2152694875504">
   <path class="fil2" d="M2096 1152c-126,-127 -294,-196 -472,-196 -78,0 -154,13 -227,39l-14 -25c-5,-8 -14,-13 -23,-13 0,0 0,0 0,0 -9,0 -18,5 -23,13l-103 180c-4,8 -4,18 0,26 5,8 14,13 23,13l0 0 207 -1c10,0 18,-5 23,-13 4,-8 4,-18 0,-26l-9 -15c47,-14 96,-22 146,-22 282,0 512,230 512,512 0,282 -230,512 -512,512 -282,0 -512,-230 -512,-512 0,-14 -11,-26 -26,-26l-104 0c-14,0 -26,12 -26,26 0,178 69,346 196,472 126,127 294,196 472,196 178,0 346,-69 472,-196 127,-126 196,-294 196,-472 0,-178 -69,-346 -196,-472zm-472 1088c-331,0 -602,-262 -615,-590l52 0c6,141 64,272 164,373 107,106 248,165 399,165 151,0 292,-59 399,-165 106,-107 165,-248 165,-399 0,-151 -59,-292 -165,-399 -107,-106 -248,-165 -399,-165 -67,0 -132,12 -194,34 -7,3 -13,9 -15,16 -3,7 -2,15 2,22l2 4 -117 0 58 -101 3 6c7,11 21,16 33,11 72,-29 149,-44 228,-44 340,0 616,276 616,616 0,340 -276,616 -616,616l0 0zm0 0z"/>
   <path class="fil2" d="M1945 1303c-10,-10 -27,-10 -37,0 -10,10 -10,27 0,37 0,0 0,0 0,0 6,5 12,8 19,8 6,0 13,-3 18,-8 10,-10 10,-27 0,-37 0,0 0,0 0,0l0 0zm0 0z"/>
   <path class="fil2" d="M1855 1263c7,-13 3,-29 -10,-36 -85,-47 -184,-66 -281,-53 -99,13 -190,58 -261,129 -86,86 -133,200 -133,321 0,121 47,235 133,321 86,86 200,133 321,133 121,0 235,-47 321,-133 148,-147 176,-375 69,-554 -8,-13 -24,-17 -36,-9 -12,7 -16,23 -9,36 95,158 70,360 -61,490 -76,76 -177,118 -284,118 -107,0 -208,-42 -284,-118 -76,-76 -118,-177 -118,-284 0,-107 42,-208 118,-284 126,-127 324,-154 480,-67 12,7 28,2 35,-10l0 0zm0 0z"/>
   <path class="fil2" d="M1650 1312l0 -19c0,-15 -11,-27 -26,-27 -14,0 -26,12 -26,27l0 19c0,15 12,26 26,26 15,0 26,-11 26,-26zm0 0z"/>
   <path class="fil2" d="M1598 1936l0 19c0,15 11,27 26,27 14,0 26,-12 26,-27l0 -19c0,-15 -12,-26 -26,-26 -15,0 -26,11 -26,26zm0 0z"/>
   <path class="fil2" d="M1910 1624c0,15 11,26 26,26l19 0c15,0 27,-11 27,-26 0,-14 -12,-26 -27,-26l-19 0c-15,0 -26,12 -26,26l0 0zm0 0z"/>
   <path class="fil2" d="M1293 1598c-15,0 -27,11 -27,26 0,14 12,26 27,26l19 0c15,0 26,-12 26,-26 0,-15 -11,-26 -26,-26l-19 0zm0 0z"/>
   <path class="fil2" d="M1781 1624c0,-14 -12,-26 -27,-26l-119 0 -196 -196c-10,-10 -27,-10 -37,0 -10,10 -10,27 0,37l204 203c4,5 11,8 18,8l130 0c15,0 27,-12 27,-26zm0 0z"/>
  </g>
 </g>
</svg>
