<?xml version="1.0" encoding="UTF-8"?>
<!DOCTYPE svg PUBLIC "-//W3C//DTD SVG 1.1//EN" "http://www.w3.org/Graphics/SVG/1.1/DTD/svg11.dtd">
<!-- Creator: CorelDRAW X7 -->
<svg xmlns="http://www.w3.org/2000/svg" xml:space="preserve" width="46.5661mm" height="2.9848mm" version="1.1" style="shape-rendering:geometricPrecision; text-rendering:geometricPrecision; image-rendering:optimizeQuality; fill-rule:evenodd; clip-rule:evenodd"
viewBox="0 0 2020 129"
 xmlns:xlink="http://www.w3.org/1999/xlink">
 <defs>
  <style type="text/css">
   <![CDATA[
    .fil0 {fill:black;fill-rule:nonzero}
    .fil1 {fill:#FED103;fill-rule:nonzero}
   ]]>
  </style>
 </defs>
 <g id="Layer_x0020_1">
  <metadata id="CorelCorpID_0Corel-Layer"/>
  <path class="fil0" d="M159 129l-30 0 0 -41 -80 0 0 -30 80 0 0 -18c0,-6 -2,-10 -7,-10l-85 0c-5,0 -7,4 -7,10l0 89 -30 0 0 -89c0,-11 3,-20 10,-28 7,-8 16,-12 27,-12l85 0c11,0 20,4 27,12 7,8 10,17 10,28l0 89z"/>
  <path id="1" class="fil0" d="M331 89c0,11 -4,21 -11,29 -6,8 -15,11 -26,11l-86 0c-11,0 -19,-3 -26,-11 -7,-8 -10,-18 -10,-29l0 -89 30 0 0 89c0,7 2,10 6,10l86 0c4,0 7,-3 7,-10l0 -89 30 0 0 89z"/>
  <path id="2" class="fil0" d="M495 129l-41 0 -65 -72 78 0c6,0 9,-5 9,-13 0,-9 -3,-14 -9,-14l-93 0 0 99 -31 0 0 -129 126 0c12,0 21,5 27,14 7,8 10,18 10,30 0,11 -3,21 -10,30 -6,9 -15,13 -27,13l-12 0 38 42z"/>
  <polygon id="3" class="fil0" points="657,30 549,30 549,50 650,50 650,80 549,80 549,99 656,99 656,129 518,129 518,0 657,0 "/>
  <path id="4" class="fil0" d="M828 129l-30 0 0 -41 -80 0 0 -30 80 0 0 -18c0,-6 -2,-10 -7,-10l-85 0c-4,0 -6,4 -6,10l0 89 -31 0 0 -89c0,-11 4,-20 10,-28 7,-8 16,-12 27,-12l85 0c11,0 20,4 27,12 7,8 10,17 10,28l0 89z"/>
  <polygon id="5" class="fil0" points="1511,129 1474,129 1474,99 1511,99 "/>
  <path id="6" class="fil0" d="M1666 129l-100 0c-12,0 -22,-3 -30,-11 -9,-8 -13,-18 -13,-30l0 -47c0,-12 4,-22 13,-29 8,-8 18,-12 30,-12l100 0 0 30 -100 0c-9,0 -13,4 -13,11l0 47c0,8 4,11 13,11l100 0 0 30z"/>
  <path id="7" class="fil0" d="M1839 88c0,12 -4,22 -12,30 -9,8 -19,11 -30,11l-76 0c-12,0 -22,-3 -30,-11 -9,-8 -13,-18 -13,-30l0 -47c0,-12 4,-22 13,-29 8,-8 18,-12 30,-12l76 0c11,0 21,4 30,12 8,7 12,17 12,29l0 47zm-30 0l0 -47c0,-7 -4,-11 -12,-11l-76 0c-8,0 -12,4 -12,11l0 47c0,8 4,11 12,11l76 0c8,0 12,-3 12,-11z"/>
  <polygon id="8" class="fil0" points="2020,129 1990,129 1990,51 1936,127 1882,51 1882,129 1852,129 1852,0 1883,0 1936,75 1988,0 2020,0 "/>
  <path id="9" class="fil1" d="M947 88c0,12 -4,22 -12,30 -8,8 -18,11 -30,11l-64 0 0 -30 64 0c8,0 12,-3 12,-11l0 -88 30 0 0 88z"/>
  <path id="10" class="fil1" d="M1119 129l-30 0 0 -41 -80 0 0 -30 80 0 0 -18c0,-6 -3,-10 -7,-10l-86 0c-4,0 -6,4 -6,10l0 89 -30 0 0 -89c0,-11 3,-20 10,-28 7,-8 16,-12 26,-12l86 0c11,0 20,4 27,12 7,8 10,17 10,28l0 89z"/>
  <path id="11" class="fil1" d="M1290 40c0,11 -3,20 -10,28 -7,8 -16,12 -26,12l-28 0 0 49 -30 0 0 -49 -28 0c-11,0 -20,-4 -26,-12 -7,-8 -11,-17 -11,-28l0 -40 31 0 0 40c0,6 2,10 6,10l86 0c4,0 6,-4 6,-10l0 -40 30 0 0 40z"/>
  <path id="12" class="fil1" d="M1462 129l-30 0 0 -41 -80 0 0 -30 80 0 0 -18c0,-6 -3,-10 -7,-10l-86 0c-4,0 -6,4 -6,10l0 89 -30 0 0 -89c0,-11 3,-20 10,-28 7,-8 16,-12 26,-12l86 0c11,0 20,4 27,12 6,8 10,17 10,28l0 89z"/>
 </g>
</svg>
