<?xml version="1.0" encoding="UTF-8"?>
<!DOCTYPE svg PUBLIC "-//W3C//DTD SVG 1.1//EN" "http://www.w3.org/Graphics/SVG/1.1/DTD/svg11.dtd">
<!-- Creator: CorelDRAW X7 -->
<svg xmlns="http://www.w3.org/2000/svg" xml:space="preserve" width="20.574mm" height="20.574mm" version="1.1" style="shape-rendering:geometricPrecision; text-rendering:geometricPrecision; image-rendering:optimizeQuality; fill-rule:evenodd; clip-rule:evenodd"
viewBox="0 0 723 723"
 xmlns:xlink="http://www.w3.org/1999/xlink">
 <defs>
  <style type="text/css">
   <![CDATA[
    .fil1 {fill:#FED100}
    .fil2 {fill:white}
    .fil0 {fill:#E6E6E6;fill-opacity:0.501961}
   ]]>
  </style>
 </defs>
 <g id="Layer_x0020_1">
  <metadata id="CorelCorpID_0Corel-Layer"/>
  <g id="_2187197841312">
   <path class="fil0" d="M361 0c200,0 362,162 362,361 0,200 -162,362 -362,362 -199,0 -361,-162 -361,-362 0,-199 162,-361 361,-361z"/>
   <path class="fil0" d="M361 52c171,0 310,138 310,309 0,171 -139,310 -310,310 -171,0 -309,-139 -309,-310 0,-171 138,-309 309,-309z"/>
   <circle class="fil1" cx="361" cy="361" r="259"/>
   <path class="fil2" d="M447 271c0,9 -7,15 -12,20 -2,2 -6,5 -6,6 0,4 -3,8 -8,8 0,0 0,0 0,0 -4,0 -8,-4 -8,-8 0,-9 7,-14 12,-18 4,-4 6,-6 6,-8 0,-5 -3,-8 -8,-8 -4,0 -8,3 -8,8 0,4 -3,8 -8,8 -4,0 -8,-4 -8,-8 0,-14 11,-24 24,-24 14,0 24,10 24,24zm-25 41c-5,0 -8,4 -8,8l0 0c0,5 3,8 8,8 4,0 8,-3 8,-8 0,-4 -4,-8 -8,-8zm-163 56c-4,0 -8,4 -8,8 0,5 4,8 8,8l1 0c4,0 8,-3 8,-8 0,-4 -4,-8 -8,-8l-1 0zm28 0c-4,0 -8,4 -8,8 0,5 4,8 8,8l1 0c4,0 8,-3 8,-8 0,-4 -4,-8 -8,-8l-1 0zm237 -128l0 90c0,22 -17,39 -39,39l-104 0c-2,0 -4,0 -5,0 -2,0 -4,0 -4,0 -1,1 -3,2 -4,4 -1,0 -2,1 -2,1l-30 27c-2,3 -6,3 -9,2 -3,-1 -5,-4 -5,-8l0 -85 -84 0c-13,0 -23,10 -23,23l0 91c0,12 10,22 23,22l117 0c2,0 4,1 5,2l24 23 0 -77c0,-4 4,-8 8,-8 5,0 8,4 8,8l0 95c0,3 -2,6 -4,7 -2,1 -3,1 -4,1 -2,0 -4,-1 -5,-2l-35 -33 -114 0c-21,0 -39,-17 -39,-38l0 -91c0,-22 18,-39 39,-39l84 0 0 -54c0,-22 18,-39 40,-39l123 0c22,0 39,17 39,39zm-16 0c0,-13 -10,-23 -23,-23l-123 0c-13,0 -23,10 -23,23l0 62 0 75 16 -14c0,-1 1,-2 2,-2 7,-7 9,-8 19,-8 1,0 3,0 5,0l104 0c13,0 23,-10 23,-23l0 -90z"/>
  </g>
 </g>
</svg>
