<?xml version="1.0" encoding="UTF-8"?>
<!DOCTYPE svg PUBLIC "-//W3C//DTD SVG 1.1//EN" "http://www.w3.org/Graphics/SVG/1.1/DTD/svg11.dtd">
<!-- Creator: CorelDRAW X7 -->
<svg xmlns="http://www.w3.org/2000/svg" xml:space="preserve" width="20.5475mm" height="20.5475mm" version="1.1" style="shape-rendering:geometricPrecision; text-rendering:geometricPrecision; image-rendering:optimizeQuality; fill-rule:evenodd; clip-rule:evenodd"
viewBox="0 0 463 463"
 xmlns:xlink="http://www.w3.org/1999/xlink">
 <defs>
  <style type="text/css">
   <![CDATA[
    .fil1 {fill:#FED100}
    .fil2 {fill:white}
    .fil0 {fill:#E6E6E6;fill-opacity:0.501961}
   ]]>
  </style>
 </defs>
 <g id="Layer_x0020_1">
  <metadata id="CorelCorpID_0Corel-Layer"/>
  <g id="_2187199927168">
   <path class="fil0" d="M232 0c127,0 231,104 231,232 0,127 -104,231 -231,231 -128,0 -232,-104 -232,-231 0,-128 104,-232 232,-232z"/>
   <path class="fil0" d="M232 33c109,0 198,89 198,199 0,109 -89,198 -198,198 -110,0 -199,-89 -199,-198 0,-110 89,-199 199,-199z"/>
   <circle class="fil1" cx="232" cy="232" r="166"/>
  </g>
  <g id="_2187199931072">
   <path class="fil2" d="M218 195c-5,0 -10,4 -10,10l7 0c0,-2 1,-4 3,-4 2,0 4,2 4,4l6 0c0,-6 -4,-10 -10,-10z"/>
   <path class="fil2" d="M245 195c-6,0 -10,4 -10,10l7 0c0,-2 1,-4 3,-4 2,0 3,2 3,4l7 0c0,-6 -4,-10 -10,-10z"/>
   <path class="fil2" d="M232 285c-8,0 -14,6 -14,14 0,7 6,13 14,13 7,0 13,-6 13,-13 0,-8 -6,-14 -13,-14zm0 20c-4,0 -7,-3 -7,-6 0,-4 3,-7 7,-7 3,0 6,3 6,7 0,3 -3,6 -6,6z"/>
   <path class="fil2" d="M312 326l0 -44c0,-28 -22,-50 -50,-50l-4 0c1,-1 2,-3 4,-4l3 0c9,0 17,-7 17,-17l0 -5c4,-3 7,-8 7,-13 0,-5 -3,-10 -7,-13 -1,-27 -23,-49 -50,-49 -28,0 -50,22 -51,49 -4,3 -6,8 -6,13 0,8 6,15 15,15l2 0c2,9 6,18 13,24l-4 0c-27,0 -50,22 -50,50l0 44 -20 0 0 6 23 0 17 0 121 0 17 0 23 0 0 -6 -20 0zm-37 -115c0,6 -4,10 -9,10 3,-4 4,-8 5,-13l3 0c0,0 1,0 1,0l0 3zm7 -18c0,5 -4,8 -8,8l-2 0 0 -16 2 0c4,0 8,3 8,8zm-91 8l-1 0c-5,0 -9,-3 -9,-8 0,-5 4,-8 9,-8l1 0 0 16zm-1 -23c-1,0 -1,0 -2,0 2,-22 21,-40 44,-40 23,0 41,18 43,40 0,0 -1,0 -1,0l-3 0c-3,-19 -20,-34 -39,-34 -20,0 -37,15 -40,34l-2 0zm75 7c-24,-1 -40,-11 -40,-21 0,-1 -2,-3 -3,-3 -2,0 -4,2 -4,3 0,9 -9,16 -20,17 2,-17 16,-30 34,-30 18,0 33,15 33,34zm-67 16l0 -13c11,-1 19,-6 24,-13 7,9 23,16 43,16l0 10c0,8 -2,15 -7,21l-26 0 0 6 20 0c-2,2 -4,3 -7,4 -8,4 -18,4 -27,0 -12,-5 -20,-17 -20,-31zm23 39c4,1 7,2 11,2 3,0 7,-1 10,-2l-10 21 -11 -21zm5 25l-6 0 -13 -27 6 0 13 27zm24 -27l6 0 -13 27 -6 0 13 -27zm-82 44l0 44 -10 0 0 -44c0,-23 18,-43 41,-44l14 27 -28 0c-10,0 -17,8 -17,17zm121 44l-114 0 0 -44c0,-6 4,-10 10,-10l33 0 14 0 13 0 34 0c5,0 10,4 10,10l0 44zm16 0l-10 0 0 -44c0,-9 -7,-17 -16,-17l-29 0 14 -27c23,1 41,21 41,44l0 44z"/>
   <rect class="fil2" x="275" y="295" width="6.71003" height="23.4851"/>
   <rect class="fil2" x="275" y="282" width="6.71003" height="6.71003"/>
   <rect class="fil2" x="305" y="161" width="6.71003" height="6.71003"/>
   <rect class="fil2" x="305" y="175" width="6.71003" height="6.71003"/>
   <rect class="fil2" x="305" y="188" width="6.71003" height="6.71003"/>
   <rect class="fil2" x="151" y="201" width="6.71003" height="6.71003"/>
   <rect class="fil2" x="151" y="215" width="6.71003" height="6.71003"/>
   <rect class="fil2" x="151" y="228" width="6.71003" height="6.71003"/>
  </g>
 </g>
</svg>
