<?xml version="1.0" encoding="UTF-8"?>
<!DOCTYPE svg PUBLIC "-//W3C//DTD SVG 1.1//EN" "http://www.w3.org/Graphics/SVG/1.1/DTD/svg11.dtd">
<!-- Creator: CorelDRAW X7 -->
<svg xmlns="http://www.w3.org/2000/svg" xml:space="preserve" width="12.9646mm" height="12.9646mm" version="1.1" style="shape-rendering:geometricPrecision; text-rendering:geometricPrecision; image-rendering:optimizeQuality; fill-rule:evenodd; clip-rule:evenodd"
viewBox="0 0 265 265"
 xmlns:xlink="http://www.w3.org/1999/xlink">
 <defs>
  <style type="text/css">
   <![CDATA[
    .fil1 {fill:#FED100}
    .fil2 {fill:white}
    .fil0 {fill:#E6E6E6;fill-opacity:0.501961}
   ]]>
  </style>
 </defs>
 <g id="Layer_x0020_1">
  <metadata id="CorelCorpID_0Corel-Layer"/>
  <g id="_2152694875600">
   <path class="fil0" d="M133 0c73,0 132,59 132,133 0,73 -59,132 -132,132 -74,0 -133,-59 -133,-132 0,-74 59,-133 133,-133z"/>
   <path class="fil0" d="M133 19c63,0 113,51 113,114 0,63 -50,113 -113,113 -63,0 -114,-50 -114,-113 0,-63 51,-114 114,-114z"/>
   <circle class="fil1" cx="133" cy="133" r="95"/>
  </g>
  <g id="_2152694875696">
   <path class="fil2" d="M107 93c-1,0 -2,1 -2,2 0,2 -2,4 -5,4 -2,0 -4,-2 -4,-4 0,-3 2,-5 4,-5 1,0 2,-1 2,-2 0,-1 -1,-2 -2,-2 -5,0 -8,4 -8,9 0,5 3,9 8,9 5,0 9,-4 9,-9 0,-1 -1,-2 -2,-2z"/>
   <path class="fil2" d="M107 117c-1,0 -2,1 -2,2 0,3 -2,5 -5,5 -2,0 -4,-2 -4,-5 0,-2 2,-4 4,-4 1,0 2,-1 2,-2 0,-2 -1,-2 -2,-2 -5,0 -8,3 -8,8 0,5 3,9 8,9 5,0 9,-4 9,-9 0,-1 -1,-2 -2,-2z"/>
   <path class="fil2" d="M132 122l-16 0c-1,0 -2,1 -2,2 0,1 1,2 2,2l16 0c1,0 2,-1 2,-2 0,-1 -1,-2 -2,-2z"/>
   <path class="fil2" d="M132 113l-16 0c-1,0 -2,1 -2,2 0,1 1,2 2,2l16 0c1,0 2,-1 2,-2 0,-1 -1,-2 -2,-2z"/>
   <path class="fil2" d="M127 146l-11 0c-1,0 -2,1 -2,2 0,2 1,2 2,2l11 0c1,0 2,0 2,-2 0,-1 -1,-2 -2,-2z"/>
   <path class="fil2" d="M132 137l-16 0c-1,0 -2,1 -2,2 0,2 1,3 2,3l16 0c1,0 2,-1 2,-3 0,-1 -1,-2 -2,-2z"/>
   <path class="fil2" d="M152 97l-36 0c-1,0 -2,1 -2,2 0,1 1,2 2,2l36 0c1,0 2,-1 2,-2 0,-1 -1,-2 -2,-2z"/>
   <path class="fil2" d="M143 88l-27 0c-1,0 -2,1 -2,2 0,1 1,2 2,2l27 0c1,0 2,-1 2,-2 0,-1 -1,-2 -2,-2z"/>
   <path class="fil2" d="M107 142c-1,0 -2,1 -2,2 0,2 -2,5 -5,5 -2,0 -4,-3 -4,-5 0,-3 2,-5 4,-5 1,0 2,-1 2,-2 0,-1 -1,-2 -2,-2 -5,0 -8,4 -8,9 0,5 3,9 8,9 5,0 9,-4 9,-9 0,-1 -1,-2 -2,-2z"/>
   <path class="fil2" d="M161 66l-76 0c-4,0 -7,3 -7,6l0 94c0,4 3,7 7,7l38 0c1,0 2,-1 2,-2 0,-1 -1,-2 -2,-2l-38 0c-2,0 -3,-1 -3,-3l0 -94c0,-1 1,-2 3,-2l76 0c1,0 2,1 2,2l0 70c0,1 1,2 2,2 1,0 2,-1 2,-2l0 -70c0,-3 -3,-6 -6,-6z"/>
   <path class="fil2" d="M180 151c-2,0 -3,0 -5,1 -1,-2 -3,-3 -6,-3 -2,-1 -4,0 -5,1 -1,-2 -3,-3 -6,-4 -1,0 -3,0 -4,1l0 -27c0,-2 -1,-4 -3,-5 -1,-2 -3,-2 -6,-2 -4,0 -7,4 -7,8l0 27 -6 6c-3,3 -4,8 -3,12l4 20c2,8 9,14 18,14l19 0c9,0 17,-8 17,-18l0 -23c0,-4 -3,-8 -7,-8zm3 31c0,7 -6,13 -13,13l-19 0c-7,0 -12,-4 -13,-10l-5 -20c-1,-3 0,-6 2,-8l3 -4 0 8c0,1 1,2 3,2 1,0 2,-1 2,-2l0 -40c0,-2 1,-4 3,-4 1,0 2,0 2,1 1,1 2,1 2,2l0 37c0,1 1,2 2,2 1,0 2,-1 2,-2l0 -3c0,-1 0,-2 1,-3 1,0 2,-1 3,-1 1,1 3,2 3,4l0 6c0,1 1,2 2,2 1,0 2,-1 2,-2l0 -4c0,-1 0,-2 1,-2 1,-1 2,-1 3,-1 2,0 3,2 3,4l0 5c0,1 1,2 2,2 1,0 2,-1 2,-2l0 -4c0,-1 1,-2 1,-2 1,-1 2,-1 3,-1 2,0 3,2 3,4l0 23 0 0z"/>
  </g>
 </g>
</svg>
