<?xml version="1.0" encoding="UTF-8"?>
<!DOCTYPE svg PUBLIC "-//W3C//DTD SVG 1.1//EN" "http://www.w3.org/Graphics/SVG/1.1/DTD/svg11.dtd">
<!-- Creator: CorelDRAW X7 -->
<svg xmlns="http://www.w3.org/2000/svg" xml:space="preserve" width="20.574mm" height="20.574mm" version="1.1" style="shape-rendering:geometricPrecision; text-rendering:geometricPrecision; image-rendering:optimizeQuality; fill-rule:evenodd; clip-rule:evenodd"
viewBox="0 0 428 428"
 xmlns:xlink="http://www.w3.org/1999/xlink">
 <defs>
  <style type="text/css">
   <![CDATA[
    .fil1 {fill:#FED100}
    .fil2 {fill:white}
    .fil0 {fill:#E6E6E6;fill-opacity:0.501961}
   ]]>
  </style>
 </defs>
 <g id="Layer_x0020_1">
  <metadata id="CorelCorpID_0Corel-Layer"/>
  <g id="_2152694883344">
   <path class="fil0" d="M214 0c118,0 214,96 214,214 0,118 -96,214 -214,214 -118,0 -214,-96 -214,-214 0,-118 96,-214 214,-214z"/>
   <path class="fil0" d="M214 31c102,0 184,82 184,183 0,102 -82,184 -184,184 -101,0 -183,-82 -183,-184 0,-101 82,-183 183,-183z"/>
   <circle class="fil1" cx="214" cy="214" r="154"/>
  </g>
  <g id="_2152694886512">
   <path class="fil2" d="M305 197l-14 -4 -8 -18 8 -13c1,-1 0,-3 -1,-4l-19 -20c-1,-1 -3,-1 -5,0l-12 7 -19 -8 -3 -14c-1,-2 -2,-3 -4,-3l-28 0c-1,0 -3,1 -3,3l-4 14 -18 8 -13 -7c-1,-1 -3,-1 -4,0l-20 20c-1,1 -1,3 0,4l7 13 -8 18 -14 4c-2,0 -3,2 -3,3l0 28c0,2 1,3 3,4l14 3 8 19 -7 12c-1,2 -1,4 0,5l20 19c1,1 3,2 4,1l13 -8 18 8 4 14c0,2 2,3 3,3l28 0c2,0 3,-1 4,-3l3 -14 19 -8 12 8c2,1 4,0 5,-1l19 -19c1,-1 2,-3 1,-5l-8 -12 8 -19 14 -3c2,-1 3,-2 3,-4l0 -28c0,-1 -1,-3 -3,-3zm-4 28l-14 3c-1,1 -2,2 -2,3l-9 22c-1,1 -1,2 0,3l7 12 -15 15 -12 -7c-1,-1 -2,-1 -3,0l-22 9c-1,0 -2,1 -3,2l-3 14 -22 0 -3 -14c0,-1 -1,-2 -2,-2l-22 -9c-1,-1 -2,-1 -3,0l-12 7 -16 -15 7 -12c1,-1 1,-2 1,-3l-9 -22c-1,-1 -2,-2 -3,-3l-13 -3 0 -22 13 -3c1,0 2,-1 3,-2l9 -22c0,-1 0,-2 -1,-3l-7 -12 16 -16 12 7c1,1 2,1 3,1l22 -9c1,-1 2,-2 2,-3l3 -13 22 0 3 13c1,1 2,2 3,3l22 9c1,0 2,0 3,-1l12 -7 15 16 -7 12c-1,1 -1,2 0,3l9 22c0,1 1,2 2,2l14 3 0 22z"/>
   <path class="fil2" d="M229 157c-2,-1 -4,0 -4,2 -1,2 0,4 2,5 23,6 39,26 39,50 0,13 -4,24 -12,33 0,-4 -2,-9 -5,-12 -3,-4 -8,-7 -13,-8l-6 -2c-2,0 -3,-2 -4,-3 6,-4 10,-11 10,-18l0 -12c0,-12 -10,-22 -22,-22 -12,0 -21,10 -21,22l0 12c0,7 3,14 9,18 0,1 -2,3 -3,3l-7 2c-5,1 -10,4 -13,8 -3,3 -5,8 -5,12 -7,-9 -12,-20 -12,-33 0,-23 16,-44 38,-50 2,-1 4,-3 3,-5 0,-2 -2,-3 -4,-2 -26,7 -44,30 -44,57 0,33 26,60 59,60 33,0 60,-27 60,-60 0,-27 -19,-51 -45,-57zm-29 35c0,-8 6,-15 14,-15 8,0 14,7 14,15l0 0c-2,-1 -4,-2 -5,-3l-4 -4c0,0 -2,-1 -3,-1 -1,1 -2,1 -2,2 -3,4 -7,6 -11,6l-3 0 0 0zm0 12l0 -4 3 0c5,0 10,-3 14,-6l1 0c3,3 6,5 10,5l0 5c0,8 -6,14 -14,14 -8,0 -14,-6 -14,-14zm21 24c-4,3 -10,3 -14,0 1,-1 1,-2 2,-3 1,0 3,0 5,0 2,0 4,0 6,0 0,1 1,2 1,3zm26 26c-9,8 -20,12 -33,12 -12,0 -24,-4 -33,-12l0 -4c0,-8 5,-14 13,-16l6 -1c0,-1 0,-1 1,-1 3,4 8,6 13,6 5,0 10,-2 14,-6 0,0 0,0 0,1l7 1c7,2 12,8 12,16l0 4z"/>
   <path class="fil2" d="M214 155l0 0c-2,0 -3,1 -3,3 0,2 1,4 3,4l0 0c0,0 0,0 0,0 2,0 4,-2 4,-4 0,-2 -2,-3 -4,-3z"/>
   <path class="fil2" d="M197 252l3 -4c2,-2 2,-4 0,-5 -1,-2 -3,-2 -5,0l-6 6c-1,1 -1,4 0,5l6 6c1,1 2,1 3,1 1,0 2,0 2,-1 2,-1 2,-3 0,-5l-3 -3z"/>
   <path class="fil2" d="M241 249l-7 -6c-1,-2 -3,-2 -5,0 -1,1 -1,3 0,5l4 4 -4 3c-1,2 -1,4 0,5 1,1 2,1 3,1 1,0 2,0 2,-1l7 -6c1,-1 1,-4 0,-5z"/>
   <path class="fil2" d="M220 241c-1,-1 -4,-1 -5,1l-8 15c-1,2 -1,4 1,5 1,1 1,1 2,1 1,0 2,-1 3,-2l9 -15c1,-2 0,-4 -2,-5z"/>
  </g>
 </g>
</svg>
